<svg width="24" height="24" viewBox="0 0 24 24" fill="#54656F" xmlns="http://www.w3.org/2000/svg">
  <path d="M8.5 10.25C9.33 10.25 10 9.58 10 8.75C10 7.92 9.33 7.25 8.5 7.25C7.67 7.25 7 7.92 7 8.75C7 9.58 7.67 10.25 8.5 10.25Z"/>
  <path d="M15.5 10.25C16.33 10.25 17 9.58 17 8.75C17 7.92 16.33 7.25 15.5 7.25C14.67 7.25 14 7.92 14 8.75C14 9.58 14.67 10.25 15.5 10.25Z"/>
  <path fill-rule="evenodd" clip-rule="evenodd" d="M12 2C6.48 2 2 6.48 2 12C2 17.52 6.48 22 12 22C12.55 22 13 21.55 13 21V18.5C13 17.95 12.55 17.5 12 17.5C9.24 17.5 7 15.26 7 12.5C7 12.22 6.78 12 6.5 12H4C3.45 12 3 12.45 3 13C3 18.52 7.48 23 13 23C18.52 23 23 18.52 23 13C23 7.48 18.52 2 13 2H12Z"/>
</svg>
