<svg viewBox="0 0 24 24" width="24" height="24" fill="#00A884">
  <circle cx="12" cy="12" r="12" fill="#00A884"/>
  <path d="M12 14C11.1667 14 10.4583 13.7083 9.875 13.125C9.29167 12.5417 9 11.8333 9 11V5C9 4.16667 9.29167 3.45833 9.875 2.875C10.4583 2.29167 11.1667 2 12 2C12.8333 2 13.5417 2.29167 14.125 2.875C14.7083 3.45833 15 4.16667 15 5V11C15 11.8333 14.7083 12.5417 14.125 13.125C13.5417 13.7083 12.8333 14 12 14ZM12 21C11.4477 21 11 20.5523 11 20V17.925C9.26667 17.6917 7.83333 16.9167 6.7 15.6C5.78727 14.5396 5.24207 13.3387 5.06441 11.9973C4.9919 11.4498 5.44772 11 6 11C6.55228 11 6.98782 11.4518 7.0905 11.9945C7.27271 12.9574 7.73004 13.805 8.4625 14.5375C9.4375 15.5125 10.6167 16 12 16C13.3833 16 14.5625 15.5125 15.5375 14.5375C16.27 13.805 16.7273 12.9574 16.9095 11.9945C17.0122 11.4518 17.4477 11 18 11C18.5523 11 19.0081 11.4498 18.9356 11.9973C18.7579 13.3387 18.2127 14.5396 173 15.6C16.1667 16.9167 14.7333 17.6917 13 17.925V20C13 20.5523 12.5523 21 12 21Z" fill="#FFFFFF"/>
</svg>